<svg xmlns="http://www.w3.org/2000/svg" xmlns:xlink="http://www.w3.org/1999/xlink" width="500" zoomAndPan="magnify" viewBox="0 0 375 374.999991" height="500" preserveAspectRatio="xMidYMid meet" version="1.0"><defs><clipPath id="id1"><path d="M 52.605469 52.605469 L 322.605469 52.605469 L 322.605469 322.605469 L 52.605469 322.605469 Z M 52.605469 52.605469 " clip-rule="nonzero"/></clipPath></defs><g clip-path="url(#id1)"><path fill="#42c2ff" d="M 120.113281 120.113281 L 86.359375 120.113281 L 52.605469 86.359375 L 52.605469 52.605469 L 86.359375 52.605469 L 120.113281 86.359375 Z M 187.617188 120.113281 L 221.367188 120.113281 L 255.121094 86.359375 L 255.121094 52.605469 L 221.367188 52.605469 L 187.617188 86.359375 L 153.863281 52.605469 L 120.113281 52.605469 L 120.113281 86.359375 L 153.863281 120.113281 Z M 322.625 52.605469 L 288.871094 52.605469 L 255.121094 86.359375 L 255.121094 120.113281 L 288.871094 120.113281 L 322.625 86.359375 Z M 255.121094 187.617188 L 255.121094 221.367188 L 288.871094 255.121094 L 322.625 255.121094 L 322.625 221.367188 L 288.871094 187.617188 L 322.625 153.863281 L 322.625 120.113281 L 288.871094 120.113281 L 255.121094 153.863281 Z M 187.617188 153.863281 L 153.863281 120.113281 L 120.113281 120.113281 L 120.113281 153.863281 L 153.863281 187.617188 L 120.113281 221.367188 L 120.113281 255.121094 L 153.863281 255.121094 L 187.617188 221.367188 L 221.367188 255.121094 L 255.121094 255.121094 L 255.121094 221.367188 L 221.367188 187.617188 L 255.121094 153.863281 L 255.121094 120.113281 L 221.367188 120.113281 Z M 255.121094 288.871094 L 288.871094 322.625 L 322.625 322.625 L 322.625 288.871094 L 288.871094 255.121094 L 255.121094 255.121094 Z M 187.617188 255.121094 L 153.863281 255.121094 L 120.113281 288.871094 L 120.113281 322.625 L 153.863281 322.625 L 187.617188 288.871094 L 221.367188 322.625 L 255.121094 322.625 L 255.121094 288.871094 L 221.367188 255.121094 Z M 86.359375 255.121094 L 52.605469 288.871094 L 52.605469 322.625 L 86.359375 322.625 L 120.113281 288.871094 L 120.113281 255.121094 Z M 120.113281 187.617188 L 120.113281 153.863281 L 86.359375 120.113281 L 52.605469 120.113281 L 52.605469 153.863281 L 86.359375 187.617188 L 52.605469 221.367188 L 52.605469 255.121094 L 86.359375 255.121094 L 120.113281 221.367188 Z M 120.113281 187.617188 " fill-opacity="1" fill-rule="nonzero"/></g></svg>