<svg xmlns="http://www.w3.org/2000/svg" xmlns:xlink="http://www.w3.org/1999/xlink" width="500" zoomAndPan="magnify" viewBox="0 0 375 101.249998" height="135" preserveAspectRatio="xMidYMid meet" version="1.0"><defs><g/><clipPath id="id1"><path d="M 45.332031 10.050781 L 132.433594 10.050781 L 132.433594 97.15625 L 45.332031 97.15625 Z M 45.332031 10.050781 " clip-rule="nonzero"/></clipPath></defs><g fill="#0a0a40" fill-opacity="1"><g transform="translate(140.793649, 50.482678)"><g><path d="M 10.984375 0 L 10.984375 -37.433594 L 2.355469 -37.433594 L 2.355469 0 Z M 10.984375 0 "/></g></g></g><g fill="#0a0a40" fill-opacity="1"><g transform="translate(154.132989, 50.482678)"><g><path d="M 11.03125 0 L 11.03125 -37.433594 L 2.355469 -37.433594 L 2.355469 0 Z M 11.03125 0 "/></g></g></g><g fill="#0a0a40" fill-opacity="1"><g transform="translate(167.564647, 50.482678)"><g><path d="M 11.03125 0 L 11.03125 -37.433594 L 2.355469 -37.433594 L 2.355469 0 Z M 11.03125 0 "/></g></g></g><g fill="#0a0a40" fill-opacity="1"><g transform="translate(180.996304, 50.482678)"><g><path d="M 15.230469 0.785156 C 17.910156 0.785156 23.449219 0.136719 27.972656 -0.691406 L 27.972656 -26.910156 L 19.292969 -26.910156 L 19.292969 -7.015625 C 17.910156 -6.738281 16.570312 -6.648438 15.554688 -6.648438 C 12.507812 -6.648438 11.03125 -7.660156 11.03125 -10.476562 L 11.03125 -26.910156 L 2.355469 -26.910156 L 2.355469 -9.785156 C 2.355469 -1.523438 8.445312 0.785156 15.230469 0.785156 Z M 15.230469 0.785156 "/></g></g></g><g fill="#0a0a40" fill-opacity="1"><g transform="translate(211.321387, 50.482678)"><g><path d="M 13.984375 0.644531 C 22.109375 0.644531 26.03125 -2.308594 26.03125 -8.402344 C 26.03125 -12.648438 23.21875 -15.460938 17.214844 -17.125 L 15.460938 -17.632812 C 12.648438 -18.371094 11.632812 -18.925781 11.632812 -19.984375 C 11.632812 -21.140625 12.878906 -21.554688 15.046875 -21.554688 C 17.261719 -21.554688 20.402344 -21.046875 22.800781 -19.800781 L 25.246094 -25.570312 C 22.523438 -27.09375 18.1875 -28.015625 13.984375 -28.015625 C 6.738281 -28.015625 2.769531 -24.785156 2.769531 -19.710938 C 2.769531 -15.09375 5.398438 -12.417969 10.9375 -10.9375 L 13.476562 -10.246094 C 16.800781 -9.371094 17.632812 -8.863281 17.632812 -7.800781 C 17.632812 -6.277344 15.878906 -5.816406 13.15625 -5.816406 C 10.476562 -5.816406 7.292969 -6.460938 4.015625 -7.800781 L 1.753906 -1.847656 C 5.675781 -0.136719 9.601562 0.644531 13.984375 0.644531 Z M 13.984375 0.644531 "/></g></g></g><g fill="#0a0a40" fill-opacity="1"><g transform="translate(239.061681, 50.482678)"><g><path d="M 6.738281 -30.1875 C 8.953125 -30.1875 10.847656 -31.339844 10.847656 -33.878906 C 10.847656 -36.09375 9.09375 -37.480469 6.738281 -37.480469 C 4.339844 -37.480469 2.585938 -36.09375 2.585938 -33.878906 C 2.585938 -31.339844 4.476562 -30.1875 6.738281 -30.1875 Z M 11.03125 0 L 11.03125 -26.910156 L 2.355469 -26.910156 L 2.355469 0 Z M 11.03125 0 "/></g></g></g><g fill="#0a0a40" fill-opacity="1"><g transform="translate(252.493339, 50.482678)"><g><path d="M 16.941406 0.785156 C 25.894531 0.785156 32.078125 -5.308594 32.078125 -13.664062 L 32.078125 -13.707031 C 32.078125 -22.0625 25.941406 -28.0625 16.941406 -28.0625 C 7.9375 -28.0625 1.800781 -22.0625 1.800781 -13.707031 L 1.800781 -13.664062 C 1.800781 -5.308594 7.984375 0.785156 16.941406 0.785156 Z M 16.941406 -6.96875 C 13.0625 -6.96875 10.523438 -9.878906 10.523438 -13.707031 L 10.523438 -13.753906 C 10.523438 -17.539062 12.96875 -20.308594 16.941406 -20.308594 C 20.910156 -20.308594 23.355469 -17.539062 23.355469 -13.753906 L 23.355469 -13.707031 C 23.355469 -9.878906 20.816406 -6.96875 16.941406 -6.96875 Z M 16.941406 -6.96875 "/></g></g></g><g fill="#0a0a40" fill-opacity="1"><g transform="translate(286.372495, 50.482678)"><g><path d="M 11.03125 0 L 11.03125 -19.941406 C 12.417969 -20.171875 13.753906 -20.308594 14.769531 -20.308594 C 17.816406 -20.308594 19.292969 -19.246094 19.292969 -16.476562 L 19.292969 0 L 27.972656 0 L 27.972656 -17.492188 C 27.972656 -25.800781 21.878906 -28.0625 15.09375 -28.0625 C 12.417969 -28.0625 6.878906 -27.417969 2.355469 -26.632812 L 2.355469 0 Z M 11.03125 0 "/></g></g></g><g fill="#0a0a40" fill-opacity="1"><g transform="translate(140.793649, 95.657577)"><g><path d="M 10.984375 0 L 10.984375 -15.324219 L 26.21875 -15.324219 L 26.21875 -22.800781 L 10.984375 -22.800781 L 10.984375 -29.402344 L 27.785156 -29.402344 L 27.785156 -37.433594 L 2.355469 -37.433594 L 2.355469 0 Z M 10.984375 0 "/></g></g></g><g fill="#0a0a40" fill-opacity="1"><g transform="translate(170.057117, 95.657577)"><g><path d="M 6.738281 -30.1875 C 8.953125 -30.1875 10.847656 -31.339844 10.847656 -33.878906 C 10.847656 -36.09375 9.09375 -37.480469 6.738281 -37.480469 C 4.339844 -37.480469 2.585938 -36.09375 2.585938 -33.878906 C 2.585938 -31.339844 4.476562 -30.1875 6.738281 -30.1875 Z M 11.03125 0 L 11.03125 -26.910156 L 2.355469 -26.910156 L 2.355469 0 Z M 11.03125 0 "/></g></g></g><g fill="#0a0a40" fill-opacity="1"><g transform="translate(183.488775, 95.657577)"><g><path d="M 11.03125 0 L 11.03125 -19.941406 C 12.417969 -20.171875 13.753906 -20.308594 14.769531 -20.308594 C 17.816406 -20.308594 19.292969 -19.246094 19.292969 -16.476562 L 19.292969 0 L 27.972656 0 L 27.972656 -17.492188 C 27.972656 -25.800781 21.878906 -28.0625 15.09375 -28.0625 C 12.417969 -28.0625 6.878906 -27.417969 2.355469 -26.632812 L 2.355469 0 Z M 11.03125 0 "/></g></g></g><g fill="#0a0a40" fill-opacity="1"><g transform="translate(213.813858, 95.657577)"><g><path d="M 15.09375 -27.878906 C 11.585938 -27.878906 7.617188 -27.1875 5.816406 -26.585938 L 3.832031 -19.015625 C 6.785156 -20.078125 10.664062 -20.679688 13.199219 -20.679688 C 16.800781 -20.679688 19.109375 -19.710938 19.109375 -16.753906 L 19.109375 -16.015625 C 17.214844 -16.292969 15.507812 -16.386719 13.664062 -16.386719 C 6.554688 -16.386719 1.800781 -13.800781 1.800781 -8.03125 L 1.800781 -7.984375 C 1.800781 -1.429688 7.0625 0.785156 15.230469 0.785156 C 19.15625 0.785156 24.046875 0.230469 27.742188 -0.554688 L 27.742188 -17.03125 C 27.742188 -25.292969 22.800781 -27.878906 15.09375 -27.878906 Z M 10.707031 -8.585938 C 10.707031 -10.664062 12.601562 -11.402344 15.601562 -11.402344 C 16.570312 -11.402344 17.910156 -11.308594 19.109375 -11.078125 L 19.109375 -5.90625 C 17.910156 -5.769531 16.707031 -5.675781 15.601562 -5.675781 C 12.554688 -5.675781 10.707031 -6.554688 10.707031 -8.539062 Z M 10.707031 -8.585938 "/></g></g></g><g fill="#0a0a40" fill-opacity="1"><g transform="translate(243.861996, 95.657577)"><g><path d="M 11.03125 0 L 11.03125 -19.941406 C 12.417969 -20.171875 13.753906 -20.308594 14.769531 -20.308594 C 17.816406 -20.308594 19.292969 -19.246094 19.292969 -16.476562 L 19.292969 0 L 27.972656 0 L 27.972656 -17.492188 C 27.972656 -25.800781 21.878906 -28.0625 15.09375 -28.0625 C 12.417969 -28.0625 6.878906 -27.417969 2.355469 -26.632812 L 2.355469 0 Z M 11.03125 0 "/></g></g></g><g fill="#0a0a40" fill-opacity="1"><g transform="translate(274.187078, 95.657577)"><g><path d="M 16.664062 0.785156 C 19.941406 0.785156 23.449219 0 26.078125 -1.382812 L 22.710938 -7.800781 C 20.863281 -6.921875 19.109375 -6.414062 17.03125 -6.414062 C 12.925781 -6.414062 10.523438 -9.417969 10.523438 -13.570312 L 10.523438 -13.664062 C 10.523438 -17.863281 12.878906 -20.863281 17.03125 -20.863281 C 19.109375 -20.863281 20.863281 -20.355469 22.710938 -19.433594 L 26.078125 -25.847656 C 23.449219 -27.234375 19.941406 -28.015625 16.664062 -28.015625 C 7.707031 -28.015625 1.800781 -22.246094 1.800781 -13.664062 L 1.800781 -13.570312 C 1.800781 -5.078125 7.753906 0.785156 16.664062 0.785156 Z M 16.664062 0.785156 "/></g></g></g><g fill="#0a0a40" fill-opacity="1"><g transform="translate(301.465801, 95.657577)"><g><path d="M 30.1875 -12.371094 C 30.1875 -22.339844 24.738281 -28.015625 16.109375 -28.015625 C 7.386719 -28.015625 1.800781 -22.15625 1.800781 -13.707031 L 1.800781 -13.617188 C 1.800781 -5.078125 7.753906 0.738281 16.984375 0.738281 C 22.386719 0.738281 26.125 -0.878906 28.988281 -2.585938 L 25.203125 -9.277344 C 23.261719 -7.9375 20.449219 -6.785156 17.308594 -6.785156 C 13.9375 -6.785156 11.585938 -9 10.800781 -11.910156 L 30.1875 -11.910156 Z M 16.015625 -21.1875 C 18.96875 -21.1875 20.910156 -19.292969 21.417969 -16.617188 L 10.800781 -16.617188 C 11.492188 -19.203125 13.339844 -21.1875 16.015625 -21.1875 Z M 16.015625 -21.1875 "/></g></g></g><g clip-path="url(#id1)"><path fill="#42c2ff" d="M 67.109375 31.828125 L 56.21875 31.828125 L 45.332031 20.9375 L 45.332031 10.050781 L 56.21875 10.050781 L 67.109375 20.9375 Z M 88.886719 31.828125 L 99.773438 31.828125 L 110.664062 20.9375 L 110.664062 10.050781 L 99.773438 10.050781 L 88.886719 20.9375 L 77.996094 10.050781 L 67.109375 10.050781 L 67.109375 20.9375 L 77.996094 31.828125 Z M 132.441406 10.050781 L 121.550781 10.050781 L 110.664062 20.9375 L 110.664062 31.828125 L 121.550781 31.828125 L 132.441406 20.9375 Z M 110.664062 53.605469 L 110.664062 64.496094 L 121.550781 75.382812 L 132.441406 75.382812 L 132.441406 64.496094 L 121.550781 53.605469 L 132.441406 42.71875 L 132.441406 31.828125 L 121.550781 31.828125 L 110.664062 42.71875 Z M 88.886719 42.71875 L 77.996094 31.828125 L 67.109375 31.828125 L 67.109375 42.71875 L 77.996094 53.605469 L 67.109375 64.496094 L 67.109375 75.382812 L 77.996094 75.382812 L 88.886719 64.496094 L 99.773438 75.382812 L 110.664062 75.382812 L 110.664062 64.496094 L 99.773438 53.605469 L 110.664062 42.71875 L 110.664062 31.828125 L 99.773438 31.828125 Z M 110.664062 86.273438 L 121.550781 97.160156 L 132.441406 97.160156 L 132.441406 86.273438 L 121.550781 75.382812 L 110.664062 75.382812 Z M 88.886719 75.382812 L 77.996094 75.382812 L 67.109375 86.273438 L 67.109375 97.160156 L 77.996094 97.160156 L 88.886719 86.273438 L 99.773438 97.160156 L 110.664062 97.160156 L 110.664062 86.273438 L 99.773438 75.382812 Z M 56.21875 75.382812 L 45.332031 86.273438 L 45.332031 97.160156 L 56.21875 97.160156 L 67.109375 86.273438 L 67.109375 75.382812 Z M 67.109375 53.605469 L 67.109375 42.71875 L 56.21875 31.828125 L 45.332031 31.828125 L 45.332031 42.71875 L 56.21875 53.605469 L 45.332031 64.496094 L 45.332031 75.382812 L 56.21875 75.382812 L 67.109375 64.496094 Z M 67.109375 53.605469 " fill-opacity="1" fill-rule="nonzero"/></g></svg>